<svg width="53" height="38" viewBox="0 0 53 38" fill="none" xmlns="http://www.w3.org/2000/svg">
<path d="M52.32 16.74C50.4359 15.6949 48.2175 15.4292 46.14 16C45.961 14.9428 45.5713 13.9324 44.9941 13.0288C44.4169 12.1252 43.664 11.3468 42.78 10.74L42.1 10.22L41.56 10.88C40.485 12.3573 40.0065 14.1855 40.22 16C40.3369 17.2049 40.7566 18.3608 41.44 19.36C40.9 19.64 40.22 19.9 39.68 20.18C38.5094 20.548 37.2868 20.7237 36.06 20.7H1.21999L0.999987 21.46C0.73552 24.0759 1.15595 26.7157 2.21999 29.12L2.73999 30.06V30.2C5.97999 35.58 11.76 38 18.08 38C30.08 38 40.08 32.76 44.84 21.46C47.94 21.6 51.04 20.78 52.52 17.82L52.92 17.16L52.32 16.74ZM11.44 30.74C10.7057 30.7403 10.0003 30.4542 9.4737 29.9425C8.94709 29.4309 8.64082 28.734 8.61999 28C8.61999 27.2521 8.91709 26.5348 9.44594 26.006C9.9748 25.4771 10.6921 25.18 11.44 25.18C12.1879 25.18 12.9052 25.4771 13.434 26.006C13.9629 26.5348 14.26 27.2521 14.26 28C14.2392 28.734 13.9329 29.4309 13.4063 29.9425C12.8797 30.4542 12.1742 30.7403 11.44 30.74V30.74ZM28.78 14H23.54V19.24H28.78V14ZM28.78 7.42H23.54V12.66H28.78V7.42ZM28.78 0.68H23.54V5.94H28.78V0.68ZM35.24 14H30V19.24H35.24V14ZM15.74 14H10.5V19.24H15.74V14ZM22.34 14H17V19.24H22.26L22.34 14ZM9.27999 14H4.03999V19.24H9.27999V14ZM22.34 7.42H17V12.66H22.26L22.34 7.42ZM15.74 7.42H10.5V12.66H15.74V7.34V7.42Z" fill="#739E89"/>
</svg>
