<svg width="28" height="28" viewBox="0 0 28 28" fill="none" xmlns="http://www.w3.org/2000/svg">
    <path d="M11.7487 23.9201C11.7487 23.749 11.711 23.58 11.6384 23.4251C11.5658 23.2702 11.46 23.1331 11.3285 23.0236C11.197 22.9142 11.043 22.8349 10.8775 22.7916C10.712 22.7482 10.539 22.7418 10.3707 22.7728C8.84342 23.0531 6.91512 23.0952 6.40242 21.6551C5.95536 20.5398 5.21483 19.5663 4.25935 18.8376C4.19118 18.8006 4.12621 18.7579 4.0651 18.71C3.98148 18.4895 3.83295 18.2994 3.63911 18.165C3.44527 18.0305 3.21522 17.958 2.97932 17.9569H2.97363C2.66516 17.9568 2.36921 18.0789 2.15056 18.2965C1.93191 18.5141 1.80836 18.8095 1.80696 19.1179C1.8024 20.0693 2.75313 20.6788 3.13883 20.885C3.59365 21.342 3.95917 21.8798 4.21663 22.4709C4.6416 23.665 5.87662 25.4765 9.42675 25.2429C9.42792 25.284 9.42903 25.3227 9.4296 25.358L9.43472 25.6702C9.43472 25.9796 9.55764 26.2764 9.77643 26.4951C9.99522 26.7139 10.292 26.8369 10.6014 26.8369C10.9108 26.8369 11.2076 26.7139 11.4263 26.4951C11.6451 26.2764 11.7681 25.9796 11.7681 25.6702L11.7624 25.2988C11.7567 25.0777 11.7487 24.7575 11.7487 23.9201ZM24.1935 6.27312C24.2306 6.12728 24.267 5.9655 24.2989 5.78321C24.4876 4.48306 24.3231 3.1561 23.8227 1.94137C23.7595 1.78302 23.6625 1.64038 23.5384 1.52348C23.4143 1.40657 23.2662 1.31823 23.1043 1.26463C22.689 1.12449 21.1555 0.848768 18.2229 2.72296C15.7852 2.1493 13.2476 2.1493 10.8099 2.72296C7.88924 0.87622 6.36368 1.12682 5.95238 1.25898C5.78656 1.31041 5.63434 1.39829 5.50689 1.51618C5.37944 1.63407 5.27998 1.77899 5.21581 1.94031C4.70516 3.17836 4.54246 4.53239 4.74527 5.85616C4.77376 6.00541 4.80451 6.14328 4.83642 6.26973C3.86992 7.55708 3.35512 9.12732 3.37182 10.737C3.36867 11.0962 3.38522 11.4552 3.42138 11.8125C3.81105 17.1822 7.31105 18.7943 9.74974 19.348C9.69905 19.4939 9.65291 19.6499 9.61189 19.8152C9.53879 20.1153 9.58771 20.4323 9.74792 20.6964C9.90814 20.9606 10.1666 21.1504 10.4666 21.2243C10.7665 21.2982 11.0836 21.2502 11.3482 21.0906C11.6128 20.9311 11.8033 20.6732 11.878 20.3734C11.9522 19.9847 12.1425 19.6276 12.4237 19.3492C12.5938 19.2003 12.7169 19.0052 12.7781 18.7876C12.8393 18.5701 12.836 18.3394 12.7685 18.1237C12.7011 17.908 12.5723 17.7166 12.3981 17.5727C12.2238 17.4288 12.0114 17.3386 11.7869 17.3132C7.75708 16.8529 6.00764 15.2111 5.74446 11.5984C5.71531 11.3122 5.70219 11.0246 5.70516 10.737C5.68644 9.58979 6.06546 8.47145 6.77782 7.57199C6.8494 7.47822 6.92564 7.38809 7.00626 7.30196C7.1491 7.14213 7.24513 6.94604 7.28382 6.7352C7.32252 6.52437 7.30237 6.30695 7.22559 6.10682C7.14688 5.89627 7.08628 5.67939 7.04444 5.45854C6.9494 4.83054 6.98057 4.18989 7.13614 3.57409C8.15013 3.86048 9.10445 4.32664 9.95364 4.95038C10.0941 5.04392 10.253 5.10617 10.4196 5.1329C10.5862 5.15964 10.7566 5.15024 10.9192 5.10534C13.2772 4.46542 15.7631 4.46583 18.1209 5.10651C18.2844 5.15135 18.4557 5.16022 18.623 5.13249C18.7903 5.10475 18.9496 5.04109 19.0899 4.94587C19.9351 4.31953 20.8854 3.8492 21.896 3.55703C22.0509 4.15805 22.0856 4.78373 21.998 5.39817C21.9557 5.6403 21.8897 5.87767 21.8009 6.10684C21.7241 6.30698 21.704 6.52439 21.7427 6.73523C21.7813 6.94606 21.8774 7.14216 22.0202 7.30199C22.1102 7.40338 22.2002 7.51276 22.2811 7.6153C22.9885 8.49953 23.3611 9.60501 23.3333 10.737C23.3354 11.0399 23.3208 11.3427 23.2895 11.6439C23.0325 15.2088 21.2763 16.8518 17.2277 17.3132C17.0031 17.3388 16.7907 17.4291 16.6164 17.5731C16.4422 17.7171 16.3135 17.9087 16.2461 18.1245C16.1787 18.3403 16.1754 18.5711 16.2367 18.7887C16.298 19.0063 16.4212 19.2014 16.5914 19.3503C16.8815 19.6362 17.0721 20.0075 17.1354 20.4099C17.2142 20.7222 17.2505 21.0437 17.2431 21.3658V24.0888C17.2317 24.8441 17.2317 25.4103 17.2317 25.6701C17.2317 25.9795 17.3546 26.2763 17.5734 26.4951C17.7922 26.7139 18.0889 26.8368 18.3983 26.8368C18.7077 26.8368 19.0045 26.7139 19.2233 26.4951C19.4421 26.2763 19.565 25.9795 19.565 25.6701C19.565 25.4172 19.565 24.8623 19.5764 24.107V21.3658C19.5858 20.8499 19.525 20.3351 19.3958 19.8356C19.3589 19.6717 19.3136 19.5097 19.2602 19.3503C21.035 19.0555 22.6476 18.1404 23.8109 16.768C24.9743 15.3956 25.6129 13.655 25.6131 11.8558C25.6515 11.4842 25.6694 11.1107 25.6667 10.737C25.6926 9.12558 25.1735 7.55263 24.1935 6.27314L24.1935 6.27312Z" fill="#82E1B3"/>
</svg>
