<svg width="52" height="52" viewBox="0 0 52 52" fill="none" xmlns="http://www.w3.org/2000/svg">
<path d="M0.916656 0.916668V51.0833H51.0833V0.916668H0.916656ZM28.2312 38.5271C28.2312 44.6958 25.2417 46.7521 20.8083 46.7521C19.6497 46.7505 18.4984 46.5685 17.3958 46.2125L17.8917 42.9167C18.6988 43.1932 19.5468 43.3312 20.4 43.325C22.7333 43.325 24.1479 42.275 24.1479 38.3958V24.0458H28.2312V38.5271ZM37.7396 46.7229C35.6394 46.7268 33.5689 46.2267 31.7021 45.2646L32.6062 41.8812C34.2546 42.8109 36.1098 43.3123 38.0021 43.3396C40.5833 43.3542 42.0417 42.1292 42.0417 40.3063C42.0417 38.4833 40.9333 37.6667 38.1042 36.6021C34.4146 35.2896 32.0667 33.3063 32.0667 30.1125C32.0667 26.4521 35.1146 23.6958 39.9708 23.6958C41.8172 23.6396 43.6507 24.0193 45.3229 24.8042L44.3458 28.0854C42.964 27.3827 41.4335 27.0226 39.8833 27.0354C37.2875 27.0354 36.1937 28.4062 36.1937 29.7188C36.1937 31.4396 37.4917 32.2417 40.4667 33.3792C44.3458 34.8375 46.2125 36.8063 46.2125 40.0146C46.2125 43.6167 43.5 46.7229 37.7396 46.7229Z" fill="#739E89"/>
</svg>
