<svg width="52" height="52" viewBox="0 0 52 52" fill="none" xmlns="http://www.w3.org/2000/svg">
<path d="M26 21.3655C25.3914 21.3655 24.7887 21.4854 24.2265 21.7183C23.6642 21.9512 23.1533 22.2926 22.7229 22.7229C22.2926 23.1533 21.9512 23.6642 21.7183 24.2265C21.4854 24.7887 21.3655 25.3914 21.3655 26C21.3655 26.6086 21.4854 27.2113 21.7183 27.7735C21.9512 28.3358 22.2926 28.8467 22.7229 29.2771C23.1533 29.7074 23.6642 30.0488 24.2265 30.2817C24.7887 30.5146 25.3914 30.6345 26 30.6345C26.6086 30.6345 27.2113 30.5146 27.7735 30.2817C28.3358 30.0488 28.8467 29.7074 29.2771 29.2771C29.7074 28.8467 30.0488 28.3358 30.2817 27.7735C30.5146 27.2113 30.6345 26.6086 30.6345 26C30.6345 25.3914 30.5146 24.7887 30.2817 24.2265C30.0488 23.6642 29.7074 23.1533 29.2771 22.7229C28.8467 22.2926 28.3358 21.9512 27.7735 21.7183C27.2113 21.4854 26.6086 21.3655 26 21.3655ZM13.0173 35.2192L11.9947 34.9592C4.37233 33.033 0 29.7635 0 25.9913C0 22.2192 4.37233 18.9497 11.9947 17.0235L13.0173 16.7657L13.3055 17.7797C14.0777 20.4397 15.0653 23.0324 16.2587 25.532L16.4775 25.9935L16.2587 26.455C15.0633 28.9537 14.0756 31.5466 13.3055 34.2073L13.0173 35.2192ZM11.5202 19.3917C5.7265 21.0188 2.171 23.5083 2.171 25.9913C2.171 28.4722 5.7265 30.9617 11.5202 32.591C12.2287 30.3375 13.0842 28.1329 14.0812 25.9913C13.0831 23.8503 12.2275 21.6456 11.5202 19.3917ZM38.9827 35.2192L38.6945 34.203C37.9231 31.5431 36.9347 28.951 35.7392 26.4528L35.5203 25.9913L35.7392 25.5298C36.9342 23.0307 37.9226 20.4379 38.6945 17.7775L38.9827 16.7635L40.0075 17.0213C47.6277 18.9475 52 22.217 52 25.9913C52 29.7657 47.6277 33.033 40.0075 34.9592L38.9827 35.2192ZM37.9188 25.9913C38.9588 28.2425 39.819 30.4547 40.4798 32.591C46.2757 30.9617 49.829 28.4722 49.829 25.9913C49.829 23.5083 46.2735 21.021 40.4798 19.3917C39.7722 21.6455 38.9167 23.8502 37.9188 25.9913ZM11.505 19.3808L11.2168 18.369C9.074 10.816 9.724 5.40367 13 3.51433C16.2132 1.65967 21.372 3.85017 26.7778 9.399L27.5145 10.1552L26.7778 10.9113C24.857 12.9081 23.102 15.0581 21.5302 17.3398L21.2377 17.758L20.7285 17.8013C17.9636 18.0193 15.221 18.4613 12.5277 19.123L11.505 19.3808ZM15.613 5.01583C15.0323 5.01583 14.5188 5.1415 14.0855 5.39067C11.9318 6.63217 11.5505 10.9482 13.0347 16.7722C15.3435 16.2585 17.6835 15.8959 20.0395 15.6867C21.3989 13.7537 22.8841 11.9124 24.4855 10.1747C21.1055 6.8835 17.9053 5.01583 15.613 5.01583ZM36.3892 49.1335C36.387 49.1335 36.387 49.1335 36.3892 49.1335C33.3017 49.1335 29.3367 46.8087 25.2222 42.5837L24.4855 41.8275L25.2222 41.0713C27.1425 39.0739 28.8968 36.9232 30.4677 34.6407L30.7602 34.2225L31.2672 34.1792C34.0335 33.9624 36.7776 33.5211 39.4723 32.8597L40.495 32.6018L40.7853 33.6158C42.9238 41.1645 42.276 46.579 39 48.4662C38.2043 48.9161 37.3032 49.1464 36.3892 49.1335ZM27.5145 41.808C30.8945 45.0992 34.0947 46.9668 36.387 46.9668H36.3892C36.9677 46.9668 37.4833 46.8412 37.9145 46.592C40.0682 45.3505 40.4517 41.0323 38.9653 35.2083C36.6559 35.7227 34.3152 36.0853 31.9583 36.2938C30.6006 38.2281 29.116 40.0702 27.5145 41.808ZM40.495 19.3808L39.4723 19.123C36.7779 18.4594 34.0337 18.0174 31.2672 17.8013L30.7602 17.758L30.4677 17.3398C28.8976 15.0574 27.1433 12.9073 25.2222 10.9113L24.4855 10.1552L25.2222 9.399C30.6258 3.85233 35.7825 1.66183 39 3.51433C42.276 5.40367 42.926 10.816 40.7853 18.3668L40.495 19.3808ZM31.9583 15.6867C34.4327 15.912 36.7835 16.2782 38.9653 16.7722C40.4517 10.9482 40.0682 6.63217 37.9145 5.39067C35.7738 4.1535 31.7503 6.04933 27.5145 10.1747C29.1151 11.9125 30.5996 13.7538 31.9583 15.6867ZM15.613 49.1335C14.6982 49.1468 13.7964 48.9165 13 48.4662C9.724 46.579 9.074 41.1667 11.2168 33.6158L11.5028 32.6018L12.5255 32.8597C15.028 33.4902 17.7883 33.9343 20.7263 34.1792L21.2355 34.2225L21.5258 34.6407C23.0979 36.9229 24.8529 39.0735 26.7735 41.0713L27.5102 41.8275L26.7735 42.5837C22.6612 46.8087 18.6962 49.1335 15.613 49.1335ZM13.0347 35.2083C11.5483 41.0323 11.9318 45.3505 14.0855 46.592C16.224 47.8118 20.2453 45.9312 24.4855 41.808C22.8848 40.0689 21.3996 38.2269 20.0395 36.2938C17.6833 36.0855 15.3434 35.7229 13.0347 35.2083ZM26 36.569C24.2168 36.569 22.3838 36.491 20.5487 36.3393L20.0395 36.296L19.747 35.8778C18.709 34.3863 17.7331 32.8524 16.822 31.2802C15.9136 29.7066 15.0707 28.0961 14.2957 26.4528L14.079 25.9913L14.2957 25.5298C15.0706 23.8865 15.9135 22.276 16.822 20.7025C17.719 19.1512 18.7048 17.6042 19.747 16.1048L20.0395 15.6867L20.5487 15.6433C24.1771 15.3357 27.8251 15.3357 31.4535 15.6433L31.9605 15.6867L32.2508 16.1048C34.329 19.0885 36.1533 22.2412 37.7043 25.5298L37.9232 25.9913L37.7043 26.4528C36.157 29.7434 34.3326 32.8965 32.2508 35.8778L31.9605 36.296L31.4535 36.3393C29.6183 36.491 27.7832 36.569 26 36.569ZM21.2398 34.2203C24.4465 34.4608 27.5535 34.4608 30.7623 34.2203C32.5538 31.6014 34.1443 28.8505 35.5203 25.9913C34.1468 23.1304 32.5554 20.3793 30.7602 17.7623C27.5913 17.5218 24.4087 17.5218 21.2398 17.7623C19.4438 20.3788 17.8524 23.13 16.4797 25.9913C17.8571 28.8502 19.4484 31.601 21.2398 34.2203Z" fill="#739E89"/>
</svg>
