<svg width="52" height="52" viewBox="0 0 54 54" fill="none" xmlns="http://www.w3.org/2000/svg">
<path d="M0.75 0.75V53.25H53.25V0.75H0.75ZM31.2292 28.4583H24.3896V48.525H20.0146V28.4583H13.2479V24.7542H31.2292V28.4583ZM39.0896 48.875C36.8592 48.9183 34.6519 48.4177 32.6583 47.4167L33.6208 43.8292C35.3854 44.7846 37.36 45.2858 39.3667 45.2875C42.1375 45.2875 43.7417 43.9896 43.7417 42.05C43.7417 40.1104 42.5458 39.1333 39.5271 38.0979C35.6042 36.7125 33.0958 34.6125 33.0958 31.2C33.0958 27.3062 36.3479 24.375 41.5104 24.375C43.4772 24.3192 45.4298 24.7237 47.2125 25.5563L46.1771 29.0562C44.7079 28.2977 43.0764 27.9073 41.4229 27.9187C38.6667 27.9187 37.5 29.3771 37.5 30.8354C37.5 32.6583 38.8708 33.5187 42.0354 34.7292C46.1771 36.3042 48.1604 38.375 48.1604 41.7875C48.1021 45.5792 45.2146 48.875 39.0896 48.875Z" fill="#739E89"/>
</svg>
