<svg width="52" height="52" viewBox="0 0 52 52" fill="none" xmlns="http://www.w3.org/2000/svg">
<path d="M44.3828 14.8281H37.1719V7.61719C37.1719 3.41702 33.7549 0 29.5547 0H22.4453C18.2451 0 14.8281 3.41702 14.8281 7.61719V14.8281H7.61719C3.41702 14.8281 0 18.2451 0 22.4453V29.5547C0 33.7549 3.41702 37.1719 7.61719 37.1719H14.8281V44.3828C14.8281 48.583 18.2451 52 22.4453 52H29.5547C33.7549 52 37.1719 48.583 37.1719 44.3828V37.1719H44.3828C48.583 37.1719 52 33.7549 52 29.5547V22.4453C52 18.2451 48.583 14.8281 44.3828 14.8281ZM7.61719 34.125C5.09717 34.125 3.04688 32.0747 3.04688 29.5547V22.4453C3.04688 19.9253 5.09717 17.875 7.61719 17.875H26C26.8415 17.875 27.5234 17.193 27.5234 16.3516C27.5234 15.5101 26.8415 14.8281 26 14.8281H17.875V7.61719C17.875 5.09717 19.9253 3.04688 22.4453 3.04688H29.5547C32.0747 3.04688 34.125 5.09717 34.125 7.61719V24.4766H16.3516C15.5101 24.4766 14.8281 25.1585 14.8281 26V34.125H7.61719ZM48.9531 29.5547C48.9531 32.0747 46.9028 34.125 44.3828 34.125H26C25.1585 34.125 24.4766 34.807 24.4766 35.6484C24.4766 36.4899 25.1585 37.1719 26 37.1719H34.125V44.3828C34.125 46.9028 32.0747 48.9531 29.5547 48.9531H22.4453C19.9253 48.9531 17.875 46.9028 17.875 44.3828V27.5234H35.6484C36.4899 27.5234 37.1719 26.8415 37.1719 26V17.875H44.3828C46.9028 17.875 48.9531 19.9253 48.9531 22.4453V29.5547Z" fill="#739E89"/>
<path d="M23.9688 9.14062C23.9688 9.98209 23.2868 10.6641 22.4453 10.6641C21.6039 10.6641 20.9219 9.98209 20.9219 9.14062C20.9219 8.29916 21.6039 7.61719 22.4453 7.61719C23.2868 7.61719 23.9688 8.29916 23.9688 9.14062Z" fill="#739E89"/>
<path d="M31.0781 42.8594C31.0781 43.7008 30.3961 44.3828 29.5547 44.3828C28.7132 44.3828 28.0312 43.7008 28.0312 42.8594C28.0312 42.0179 28.7132 41.3359 29.5547 41.3359C30.3961 41.3359 31.0781 42.0179 31.0781 42.8594Z" fill="#739E89"/>
</svg>
